HIERARCHY
ROOT Hips
{
    OFFSET 0.000000 0.000000 0.000000
    CHANNELS 6 Xposition Yposition Zposition Zrotation Xrotation Yrotation
    JOINT Spine
    {
        OFFSET -0.000000 7.523850 0.000000
        CHANNELS 3 Zrotation Xrotation Yrotation
        JOINT Spine1
        {
            OFFSET -0.000000 21.784267 0.000000
            CHANNELS 3 Zrotation Xrotation Yrotation
            JOINT Neck
            {
                OFFSET -0.000000 21.694805 1.972255
                CHANNELS 3 Zrotation Xrotation Yrotation
                JOINT Head
                {
                    OFFSET -0.000000 12.845598 -1.835085
                    CHANNELS 3 Zrotation Xrotation Yrotation
                    End Site
                    {
                        OFFSET -0.000000 22.938568 0.000000
                    }
                }
            }
            JOINT LeftShoulder
            {
                OFFSET 3.657477 19.705200 -0.211895
                CHANNELS 3 Zrotation Xrotation Yrotation
                JOINT LeftArm
                {
                    OFFSET 11.195261 0.000000 0.000000
                    CHANNELS 3 Zrotation Xrotation Yrotation
                    JOINT LeftForeArm
                    {
                        OFFSET 29.660666 0.000000 0.000000
                        CHANNELS 3 Zrotation Xrotation Yrotation
                        JOINT LeftHand
                        {
                            OFFSET 23.347620 0.000000 0.000000
                            CHANNELS 3 Zrotation Xrotation Yrotation
                            End Site
                            {
                                OFFSET 13.763142 0.000000 0.000000
                            }
                        }
                    }
                }
            }
            JOINT RightShoulder
            {
                OFFSET -3.680529 19.705200 -0.211895
                CHANNELS 3 Zrotation Xrotation Yrotation
                JOINT RightArm
                {
                    OFFSET -11.195261 0.000000 0.000000
                    CHANNELS 3 Zrotation Xrotation Yrotation
                    JOINT RightForeArm
                    {
                        OFFSET -29.660666 0.000000 0.000000
                        CHANNELS 3 Zrotation Xrotation Yrotation
                        JOINT RightHand
                        {
                            OFFSET -23.347620 0.000000 0.000000
                            CHANNELS 3 Zrotation Xrotation Yrotation
                            End Site
                            {
                                OFFSET -13.763142 0.000000 0.000000
                            }
                        }
                    }
                }
            }
        }
    }
    JOINT LeftUpLeg
    {
        OFFSET 9.175427 0.000000 0.000000
        CHANNELS 3 Zrotation Xrotation Yrotation
        JOINT LeftLeg
        {
            OFFSET -0.000000 -39.121593 0.000000
            CHANNELS 3 Zrotation Xrotation Yrotation
            JOINT LeftFoot
            {
                OFFSET -0.000000 -35.356884 0.000000
                CHANNELS 3 Zrotation Xrotation Yrotation
                JOINT LeftToeBase
                {
                    OFFSET -0.000000 -5.964027 13.763142
                    CHANNELS 3 Zrotation Xrotation Yrotation
                    End Site
                    {
                        OFFSET -0.000000 0.000000 3.670171
                    }
                }
            }
        }
    }
    JOINT RightUpLeg
    {
        OFFSET -9.175427 0.000000 0.000000
        CHANNELS 3 Zrotation Xrotation Yrotation
        JOINT RightLeg
        {
            OFFSET -0.000000 -39.121593 0.000000
            CHANNELS 3 Zrotation Xrotation Yrotation
            JOINT RightFoot
            {
                OFFSET -0.000000 -35.356884 0.000000
                CHANNELS 3 Zrotation Xrotation Yrotation
                JOINT RightToeBase
                {
                    OFFSET -0.000000 -5.964027 13.763142
                    CHANNELS 3 Zrotation Xrotation Yrotation
                    End Site
                    {
                        OFFSET -0.000000 0.000000 3.670171
                    }
                }
            }
        }
    }
}
MOTION
Frames:    14
Frame Time:    0.004000
-14.855281    76.558258    -216.512985    0.024455    0.721031    2.919309    -0.197274    -3.078045    -0.442311    2.652514    -3.435990    -0.357523    -1.848186    10.653067    -2.451850    0.497979    9.009443    -2.424059    16.891243    -1.663076    -4.580593    -22.372368    7.797079    -2.717380    2.339541    -2.570767    -2.810008    5.946238    -2.544391    -0.596117    -18.027252    0.371251    -1.362162    23.192066    6.864717    9.201475    -2.443784    0.547749    3.316756    -6.836057    0.742446    -2.075220    2.882368    1.747455    0.566837    -0.141373    -0.134488    0.844935    -3.281745    -1.598115    11.697258    0.000000    0.000000    0.000000    -3.880198    0.694633    1.202429    1.670628    4.225465    0.208006    2.418053    -5.489145    -21.866856    0.000000    0.000000    0.000000    
-14.867726    76.557312    -216.507263    0.027483    0.718095    2.921401    -0.160399    -3.051942    -0.474188    2.617266    -3.499693    -0.389960    -1.874596    10.841860    -2.410790    0.486514    8.781976    -2.382909    16.840008    -1.633222    -4.561567    -22.332714    7.806456    -2.670697    2.356317    -2.544564    -2.825602    5.991881    -2.518240    -0.607178    -18.022411    0.416212    -1.249381    23.230886    6.841496    9.185776    -2.456939    0.548465    3.310044    -6.907634    0.745714    -2.092086    2.885112    1.748718    0.561533    -0.089584    -0.112025    0.699978    -3.379635    -1.614825    11.742511    0.000000    0.000000    0.000000    -3.880820    0.695007    1.210315    1.684875    4.238504    0.219462    2.384066    -5.495955    -21.887020    0.000000    0.000000    0.000000    
-14.878867    76.557198    -216.500641    0.033988    0.704222    2.915503    -0.194336    -3.062141    -0.446882    2.641182    -3.420218    -0.362891    -1.804370    10.761033    -2.441518    0.458305    8.808242    -2.419119    16.897713    -1.658155    -4.578341    -22.375452    7.803397    -2.702885    2.371735    -2.546395    -2.845765    6.005881    -2.518580    -0.591985    -17.996628    0.394437    -1.361011    23.201244    6.880488    9.223671    -2.402049    0.620984    3.307930    -7.729896    0.843119    -2.260241    2.883565    1.765443    0.562369    -0.082761    -0.104347    0.682234    -3.353883    -1.625246    11.761060    0.000000    0.000000    0.000000    -3.877368    0.705533    1.216540    1.680410    4.252298    0.202348    2.380940    -5.505171    -21.858213    0.000000    0.000000    0.000000    
-14.890493    76.555801    -216.495087    0.036853    0.697425    2.914810    -0.282847    -3.051061    -0.445550    2.931399    -3.454888    -0.349664    -2.178500    10.858798    -2.442573    0.632651    8.750609    -2.391029    16.560696    -1.694737    -4.665691    -22.260633    7.882527    -2.602156    2.403396    -2.545742    -2.850317    5.996359    -2.518276    -0.616346    -18.276779    0.486638    -1.338927    23.316183    6.807296    9.252063    -2.397299    0.653405    3.284644    -7.759334    0.875757    -2.265017    2.886182    1.773277    0.578465    -0.080213    -0.102720    0.708225    -3.346676    -1.621971    11.727003    0.000000    0.000000    0.000000    -3.878961    0.708807    1.237328    1.697441    4.268618    0.217332    2.363357    -5.531929    -21.883360    0.000000    0.000000    0.000000    
-14.902641    76.555656    -216.489365    0.036953    0.689293    2.913703    -0.284607    -3.046496    -0.449145    2.938991    -3.441911    -0.353334    -2.168304    10.869101    -2.442522    0.626112    8.730741    -2.392008    16.554447    -1.689557    -4.659749    -22.249802    7.878303    -2.605419    2.408633    -2.540992    -2.858058    5.991302    -2.514003    -0.632092    -18.272118    0.491054    -1.338049    23.323845    6.797442    9.266648    -2.388210    0.668803    3.272510    -7.761209    0.890708    -2.264792    2.893097    1.783841    0.580543    -0.112703    -0.120062    0.848379    -3.317997    -1.598676    11.676454    0.000000    0.000000    0.000000    -3.864648    0.714091    1.233423    1.688152    4.280517    0.226773    2.338016    -5.539052    -21.887011    0.000000    0.000000    0.000000    
-14.913214    76.555176    -216.483887    0.043020    0.691393    2.915395    -0.277178    -3.044859    -0.449497    2.915511    -3.449088    -0.354353    -2.117411    10.909834    -2.426788    0.588605    8.676504    -2.381243    16.565859    -1.696940    -4.672565    -22.258989    7.932401    -2.583852    2.445250    -2.537750    -2.873820    5.966238    -2.509273    -0.629851    -18.244480    0.512057    -1.346891    23.319414    6.802068    9.284435    -2.384376    0.668956    3.270017    -7.750319    0.890208    -2.261907    2.892298    1.781947    0.586534    -0.070350    -0.097509    0.691229    -3.400964    -1.623323    11.747152    0.000000    0.000000    0.000000    -3.869782    0.710816    1.219643    1.703063    4.292353    0.238490    2.347289    -5.565385    -21.897257    0.000000    0.000000    0.000000    
-14.924494    76.553413    -216.476685    0.045643    0.681678    2.909381    -0.179969    -3.040526    -0.455455    2.614855    -3.402743    -0.373129    -1.765864    10.706582    -2.410387    0.475300    8.932774    -2.387202    16.906244    -1.653840    -4.583347    -22.366796    7.892764    -2.664353    2.431152    -2.536776    -2.896151    6.006652    -2.508120    -0.624582    -17.944218    0.444510    -1.357788    23.219711    6.886638    9.272146    -2.402484    0.644392    3.297239    -7.688576    0.868763    -2.310389    2.901932    1.796421    0.592715    -0.126892    -0.111637    0.866117    -3.302415    -1.602452    11.672360    0.000000    0.000000    0.000000    -3.866585    0.715662    1.240753    1.708340    4.308629    0.234145    2.308696    -5.563035    -21.890324    0.000000    0.000000    0.000000    
-14.933642    76.552650    -216.472046    0.050375    0.680615    2.911451    -0.178534    -3.037598    -0.462306    2.614313    -3.404340    -0.379854    -1.722981    10.857284    -2.413645    0.397283    8.673860    -2.399403    16.893444    -1.652305    -4.587679    -22.363121    7.917774    -2.642306    2.459728    -2.538353    -2.909643    5.973864    -2.508434    -0.622744    -17.936602    0.457493    -1.339108    23.227329    6.883557    9.266749    -2.451801    0.570209    3.312343    -6.853802    0.769399    -2.140890    2.898260    1.800543    0.591084    -0.114271    -0.109803    0.854626    -3.310914    -1.609557    11.680233    0.000000    0.000000    0.000000    -3.869691    0.714005    1.233195    1.716098    4.324000    0.274066    2.332652    -5.587832    -21.925341    0.000000    0.000000    0.000000    
-14.942900    76.552895    -216.464920    0.055710    0.672888    2.914749    -0.254788    -3.031308    -0.461095    2.867153    -3.423844    -0.368757    -2.055896    10.933947    -2.405739    0.552516    8.623713    -2.365042    16.525734    -2.101079    -4.839465    -22.282564    8.359279    -2.150567    2.503224    -2.570095    -3.016920    5.984515    -2.535700    -0.601893    -18.192305    0.535851    -1.326786    23.347427    6.798734    9.293458    -2.458457    0.601625    3.287148    -6.865317    0.801380    -2.153310    2.897860    1.809115    0.595726    -0.067563    -0.083536    0.687159    -3.400211    -1.637563    11.761201    0.000000    0.000000    0.000000    -3.870360    0.727962    1.232504    1.723777    4.325222    0.301290    2.296475    -5.602126    -21.963243    0.000000    0.000000    0.000000    
-14.952702    76.552475    -216.461060    0.058136    0.675553    2.916925    -0.253566    -3.034912    -0.464289    2.859812    -3.416608    -0.372271    -2.030308    10.937917    -2.401961    0.539679    8.613100    -2.363286    16.534193    -2.100186    -4.840805    -22.281464    8.360281    -2.143973    2.508811    -2.560801    -3.026604    5.972614    -2.526093    -0.604496    -18.169849    0.538376    -1.325152    23.346682    6.810208    9.294453    -2.419007    0.680480    3.272897    -7.680317    0.904491    -2.306881    2.903357    1.811006    0.589359    -0.106967    -0.114057    0.846222    -3.360896    -1.604042    11.694061    0.000000    0.000000    0.000000    -3.870866    0.719820    1.241694    1.735477    4.344038    0.302113    2.272919    -5.607093    -21.963844    0.000000    0.000000    0.000000    
-14.964120    76.551399    -216.455032    0.057401    0.674989    2.918189    -0.169444    -3.036117    -0.471794    2.593260    -3.388165    -0.390755    -1.721467    10.790764    -2.393439    0.460949    8.808078    -2.373626    16.848120    -2.040797    -4.771574    -22.390875    8.307230    -2.218293    2.510756    -2.568892    -3.039913    5.990267    -2.533310    -0.592385    -17.890575    0.505505    -1.341445    23.239212    6.866789    9.299825    -2.414937    0.670208    3.285618    -7.619771    0.893385    -2.309862    2.913738    1.813071    0.602301    -0.116589    -0.101659    0.848908    -3.361989    -1.622993    11.694036    0.000000    0.000000    0.000000    -3.860579    0.716954    1.231063    1.730551    4.357102    0.295473    2.286558    -5.627991    -21.952259    0.000000    0.000000    0.000000    
-14.972544    76.550774    -216.449493    0.057764    0.665725    2.926877    -0.248838    -3.027726    -0.473567    2.862894    -3.408852    -0.381842    -2.042438    10.952751    -2.397562    0.568199    8.597793    -2.356385    16.523300    -2.078982    -4.847976    -22.277981    8.388078    -2.131624    2.540420    -2.575150    -3.039553    5.956534    -2.539281    -0.605169    -18.152641    0.566199    -1.317308    23.358490    6.808124    9.300547    -2.476053    0.601533    3.281439    -6.825993    0.799275    -2.125530    2.919984    1.814481    0.594954    -0.069433    -0.078132    0.695585    -3.430128    -1.627221    11.737816    0.000000    0.000000    0.000000    -3.857882    0.725142    1.227817    1.741910    4.370496    0.314542    2.262817    -5.629734    -21.980604    0.000000    0.000000    0.000000    
-14.980292    76.550903    -216.443680    0.062823    0.670195    2.923482    -0.148408    -3.041450    -0.480060    2.549063    -3.363384    -0.401349    -1.649679    10.779554    -2.383828    0.406539    8.812176    -2.370732    16.862791    -2.024867    -4.761200    -22.382820    8.347102    -2.216181    2.532937    -2.575921    -3.059145    5.960282    -2.538870    -0.585947    -17.835150    0.500657    -1.327335    23.243467    6.868424    9.285689    -2.477081    0.583894    3.302238    -6.756042    0.780776    -2.126008    2.918526    1.815838    0.612384    -0.111374    -0.093154    0.848949    -3.349118    -1.611605    11.669203    0.000000    0.000000    0.000000    -3.857470    0.721950    1.230197    1.741300    4.380988    0.317160    2.239094    -5.646122    -21.968866    0.000000    0.000000    0.000000    
-14.987922    76.550934    -216.438721    0.067845    0.676627    2.923351    -0.127574    -3.130764    -0.432362    2.542696    -3.200268    -0.357986    -1.738452    10.695015    -2.423236    0.512360    8.831954    -2.398932    16.784504    -2.138381    -4.874760    -22.342529    8.363068    -2.159389    2.560394    -2.584049    -3.074433    5.960993    -2.545405    -0.576547    -17.869886    0.466341    -1.451165    23.289576    6.857618    9.299855    -2.437496    0.639079    3.290165    -7.611434    0.861100    -2.285237    2.917614    1.802760    0.617363    -0.104688    -0.074491    0.823833    -3.371612    -1.613220    11.685674    0.000000    0.000000    0.000000    -3.863151    0.713625    1.234323    1.752098    4.388539    0.324302    2.234536    -5.651595    -21.976885    0.000000    0.000000    0.000000    
